<svg id="Capa_1" enable-background="new 0 0 512 512" height="512" viewBox="0 0 512 512" width="512" xmlns="http://www.w3.org/2000/svg"><path d="m497.643 58.794c-15.212-26.984-40.385-46.389-70.883-54.641-61.722-16.702-126.02 18.474-143.336 78.409-1.063 3.679-1.924 7.387-2.597 11.111-.018.101-.037.202-.053.304-3.987 22.414-.944 45.392 8.85 66.18l-4.187 22.211c-6.863-3.068-14.478-4.744-22.358-4.825l-19.123-.197c-7.599-.055-14.021 5.502-15.014 13.003-5.939 44.898-19.751 84.727-29.14 95.881-6.83 8.112-17.714 13.937-30.647 16.4-10.505 2.001-21.188 6.38-30.449 12.362-2.368-5.151-7.567-8.736-13.616-8.736h-110.102c-3.975 0-7.788 1.577-10.598 4.383-2.811 2.807-4.39 6.613-4.39 10.582l.014 173.92c.001 8.264 6.711 14.963 14.988 14.963h110.102c3.975 0 7.788-1.577 10.598-4.383 2.811-2.807 4.39-6.614 4.389-10.582l-.002-20.553 19.062 9.426c11.561 6.408 23.917 11.702 36.734 15.737 23.474 7.39 44.366 10.738 69.853 11.194.012 0 .023 0 .034.001l1.05.017c.22.004.44.003.659-.003l128.81 1.04h.124.003c.074 0 .148.001.223.001 12.069 0 23.86-5.859 32.4-16.117 7.714-9.265 12.211-21.405 12.34-33.305.128-11.847-4.01-23.092-11.675-31.804 7.881-8.551 12.857-20.081 12.991-32.597.134-12.339-5.953-25.038-16.698-34.841-.168-.154-.337-.305-.507-.456 6.887-8.081 11.121-18.657 11.246-30.253.133-12.261-4.303-23.876-12.49-32.707-.082-.089-.17-.171-.252-.259l36.448-92.604c22.991-14.984 39.656-37.294 47.177-63.328 8.282-28.664 4.738-58.828-9.978-84.934zm-78.725-25.754c22.682 6.137 41.363 20.497 52.602 40.435 9.932 17.618 12.882 37.75 8.506 57.198l-166.111-44.948c14.899-41.171 60.792-64.647 105.003-52.685zm-106.202 251.114.661-61.067c.052-4.847-.799-9.634-2.44-14.184l6.052-32.102 111.303 30.116-31.12 79.067c-1.576-.187-84.456-1.83-84.456-1.83zm133.279-103.454-130.126-35.21c-4.217-9.595-6.489-19.781-6.779-30.063l158.965 43.013c-5.813 8.627-13.262 16.183-22.06 22.26zm-416.007 299.476-.012-143.991h80.126l.002 22.952c0 .014-.002.029-.002.043 0 .016.002.031.002.047l.008 91.513c.002.106-.004.213 0 .318l.002 29.118zm366.741-34.627c3.809.039 7.419 1.692 10.165 4.652 2.96 3.193 4.564 7.474 4.514 12.053-.107 9.854-7.541 19.818-14.76 19.818-.037 0-.073 0-.109-.001-.002 0-.004 0-.005 0l-129.104-1.042c-.534-.021-.973-.016-1.285-.011-22.388-.411-40.713-3.347-61.245-9.811-11.002-3.463-21.591-8.01-31.474-13.514-.213-.119-.43-.232-.649-.341l-32.69-16.164-.007-81.75c.184-10.543 17.331-24.101 34.69-27.407 19.685-3.749 36.724-13.176 47.977-26.542 15.405-18.298 27.764-61.222 33.937-98.08l6.083.062c5.948.061 11.635 2.048 15.602 5.45 1.902 1.631 5.084 5.079 5.033 9.844l-.821 75.9c-.089 8.213 6.469 14.963 14.694 15.123l90.735 1.768c.047.001.093.001.139.002l3.936.04c3.809.039 7.419 1.692 10.165 4.652 2.961 3.193 4.564 7.474 4.514 12.053-.099 9.083-6.773 16.413-14.909 16.413-.047 0-.094 0-.141-.001-8.235-.089-15.056 6.544-15.142 14.808-.001.056-.001.113-.001.169.006 8.187 6.612 14.864 14.833 14.949 4.26.044 9.902 2.708 14.373 6.787 4.325 3.945 6.986 8.706 6.946 12.425-.099 9.172-7.65 17.769-15.572 17.769-.091 0-.182-.001-.27-.001-8.205 0-14.899 6.598-14.984 14.81-.001.056-.001.113-.001.169.006 8.188 6.613 14.864 14.833 14.949z"/></svg>